<mxfile host="Electron" modified="2024-02-25T03:51:09.161Z" agent="Mozilla/5.0 (Windows NT 10.0; Win64; x64) AppleWebKit/537.36 (KHTML, like Gecko) draw.io/23.1.5 Chrome/120.0.6099.109 Electron/28.1.0 Safari/537.36" etag="6nwfKwTdTScJFoqKwIdS" version="23.1.5" type="device">
  <diagram id="C5RBs43oDa-KdzZeNtuy" name="Page-1">
    <mxGraphModel dx="2958" dy="1967" grid="1" gridSize="10" guides="1" tooltips="1" connect="1" arrows="1" fold="1" page="1" pageScale="1" pageWidth="827" pageHeight="1169" math="0" shadow="0">
      <root>
        <mxCell id="WIyWlLk6GJQsqaUBKTNV-0" />
        <mxCell id="WIyWlLk6GJQsqaUBKTNV-1" parent="WIyWlLk6GJQsqaUBKTNV-0" />
        <mxCell id="hDE4gSIP_6tDHtdlFtJO-68" value="" style="edgeStyle=orthogonalEdgeStyle;rounded=0;orthogonalLoop=1;jettySize=auto;html=1;entryX=1;entryY=0.5;entryDx=0;entryDy=0;sketch=1;curveFitting=1;jiggle=2;" edge="1" parent="WIyWlLk6GJQsqaUBKTNV-1" source="hDE4gSIP_6tDHtdlFtJO-59" target="hDE4gSIP_6tDHtdlFtJO-77">
          <mxGeometry relative="1" as="geometry">
            <mxPoint x="-120" y="-550" as="targetPoint" />
            <Array as="points">
              <mxPoint x="-110" y="-160" />
              <mxPoint x="-110" y="-515" />
            </Array>
          </mxGeometry>
        </mxCell>
        <mxCell id="hDE4gSIP_6tDHtdlFtJO-71" style="edgeStyle=orthogonalEdgeStyle;rounded=0;orthogonalLoop=1;jettySize=auto;html=1;entryX=0.5;entryY=0;entryDx=0;entryDy=0;exitX=0;exitY=0.5;exitDx=0;exitDy=0;sketch=1;curveFitting=1;jiggle=2;" edge="1" parent="WIyWlLk6GJQsqaUBKTNV-1" source="hDE4gSIP_6tDHtdlFtJO-1" target="hDE4gSIP_6tDHtdlFtJO-74">
          <mxGeometry relative="1" as="geometry">
            <mxPoint x="-390" y="-360" as="targetPoint" />
            <mxPoint x="190" y="-662" as="sourcePoint" />
          </mxGeometry>
        </mxCell>
        <mxCell id="hDE4gSIP_6tDHtdlFtJO-78" value="" style="edgeStyle=orthogonalEdgeStyle;rounded=0;orthogonalLoop=1;jettySize=auto;html=1;sketch=1;curveFitting=1;jiggle=2;" edge="1" parent="WIyWlLk6GJQsqaUBKTNV-1" source="hDE4gSIP_6tDHtdlFtJO-74" target="hDE4gSIP_6tDHtdlFtJO-77">
          <mxGeometry relative="1" as="geometry" />
        </mxCell>
        <mxCell id="hDE4gSIP_6tDHtdlFtJO-74" value="Proceso Max" style="rounded=1;whiteSpace=wrap;html=1;absoluteArcSize=1;arcSize=14;strokeWidth=1;sketch=1;curveFitting=1;jiggle=2;" vertex="1" parent="WIyWlLk6GJQsqaUBKTNV-1">
          <mxGeometry x="-240" y="-625" width="100" height="30" as="geometry" />
        </mxCell>
        <mxCell id="hDE4gSIP_6tDHtdlFtJO-82" value="" style="edgeStyle=orthogonalEdgeStyle;rounded=0;orthogonalLoop=1;jettySize=auto;html=1;sketch=1;curveFitting=1;jiggle=2;" edge="1" parent="WIyWlLk6GJQsqaUBKTNV-1" source="hDE4gSIP_6tDHtdlFtJO-75" target="hDE4gSIP_6tDHtdlFtJO-81">
          <mxGeometry relative="1" as="geometry" />
        </mxCell>
        <mxCell id="hDE4gSIP_6tDHtdlFtJO-126" value="" style="edgeStyle=orthogonalEdgeStyle;rounded=0;orthogonalLoop=1;jettySize=auto;html=1;sketch=1;curveFitting=1;jiggle=2;" edge="1" parent="WIyWlLk6GJQsqaUBKTNV-1" source="hDE4gSIP_6tDHtdlFtJO-75" target="hDE4gSIP_6tDHtdlFtJO-125">
          <mxGeometry relative="1" as="geometry" />
        </mxCell>
        <mxCell id="hDE4gSIP_6tDHtdlFtJO-75" value="Proceso lista ordenada dos" style="rounded=1;whiteSpace=wrap;html=1;absoluteArcSize=1;arcSize=14;strokeWidth=1;sketch=1;curveFitting=1;jiggle=2;" vertex="1" parent="WIyWlLk6GJQsqaUBKTNV-1">
          <mxGeometry x="-820" y="-520" width="100" height="40" as="geometry" />
        </mxCell>
        <mxCell id="hDE4gSIP_6tDHtdlFtJO-72" style="edgeStyle=orthogonalEdgeStyle;rounded=0;orthogonalLoop=1;jettySize=auto;html=1;exitX=0;exitY=0;exitDx=0;exitDy=0;entryX=0.5;entryY=0;entryDx=0;entryDy=0;sketch=1;curveFitting=1;jiggle=2;" edge="1" parent="WIyWlLk6GJQsqaUBKTNV-1" source="hDE4gSIP_6tDHtdlFtJO-1" target="hDE4gSIP_6tDHtdlFtJO-75">
          <mxGeometry relative="1" as="geometry">
            <mxPoint x="-660" y="-290" as="targetPoint" />
            <mxPoint x="70.98349570549499" y="-709.0165042945049" as="sourcePoint" />
          </mxGeometry>
        </mxCell>
        <mxCell id="hDE4gSIP_6tDHtdlFtJO-91" value="" style="edgeStyle=orthogonalEdgeStyle;rounded=0;orthogonalLoop=1;jettySize=auto;html=1;sketch=1;curveFitting=1;jiggle=2;" edge="1" parent="WIyWlLk6GJQsqaUBKTNV-1" source="hDE4gSIP_6tDHtdlFtJO-77" target="hDE4gSIP_6tDHtdlFtJO-90">
          <mxGeometry relative="1" as="geometry" />
        </mxCell>
        <mxCell id="hDE4gSIP_6tDHtdlFtJO-77" value="Recibo lista" style="shape=parallelogram;perimeter=parallelogramPerimeter;whiteSpace=wrap;html=1;fixedSize=1;rounded=1;arcSize=14;strokeWidth=1;sketch=1;curveFitting=1;jiggle=2;" vertex="1" parent="WIyWlLk6GJQsqaUBKTNV-1">
          <mxGeometry x="-250" y="-530" width="120" height="30" as="geometry" />
        </mxCell>
        <mxCell id="hDE4gSIP_6tDHtdlFtJO-111" value="" style="edgeStyle=orthogonalEdgeStyle;rounded=0;orthogonalLoop=1;jettySize=auto;html=1;sketch=1;curveFitting=1;jiggle=2;" edge="1" parent="WIyWlLk6GJQsqaUBKTNV-1" source="hDE4gSIP_6tDHtdlFtJO-81" target="hDE4gSIP_6tDHtdlFtJO-110">
          <mxGeometry relative="1" as="geometry" />
        </mxCell>
        <mxCell id="hDE4gSIP_6tDHtdlFtJO-81" value="Recibo lista" style="shape=parallelogram;perimeter=parallelogramPerimeter;whiteSpace=wrap;html=1;fixedSize=1;rounded=1;arcSize=14;strokeWidth=1;sketch=1;curveFitting=1;jiggle=2;" vertex="1" parent="WIyWlLk6GJQsqaUBKTNV-1">
          <mxGeometry x="-830" y="-340" width="120" height="30" as="geometry" />
        </mxCell>
        <mxCell id="hDE4gSIP_6tDHtdlFtJO-86" value="" style="edgeStyle=orthogonalEdgeStyle;rounded=0;orthogonalLoop=1;jettySize=auto;html=1;entryX=0.5;entryY=1;entryDx=0;entryDy=0;dashed=1;exitX=1;exitY=0.5;exitDx=0;exitDy=0;sketch=1;curveFitting=1;jiggle=2;" edge="1" parent="WIyWlLk6GJQsqaUBKTNV-1" source="hDE4gSIP_6tDHtdlFtJO-83" target="hDE4gSIP_6tDHtdlFtJO-89">
          <mxGeometry relative="1" as="geometry">
            <mxPoint x="-350" y="-400" as="targetPoint" />
            <Array as="points">
              <mxPoint x="-120" y="-330" />
              <mxPoint x="-120" y="-140" />
              <mxPoint x="-560" y="-140" />
            </Array>
          </mxGeometry>
        </mxCell>
        <mxCell id="hDE4gSIP_6tDHtdlFtJO-87" value="No" style="edgeLabel;html=1;align=center;verticalAlign=middle;resizable=0;points=[];sketch=1;curveFitting=1;jiggle=2;" vertex="1" connectable="0" parent="hDE4gSIP_6tDHtdlFtJO-86">
          <mxGeometry x="0.6682" y="-2" relative="1" as="geometry">
            <mxPoint as="offset" />
          </mxGeometry>
        </mxCell>
        <mxCell id="hDE4gSIP_6tDHtdlFtJO-105" value="" style="edgeStyle=orthogonalEdgeStyle;rounded=0;orthogonalLoop=1;jettySize=auto;html=1;dashed=1;sketch=1;curveFitting=1;jiggle=2;" edge="1" parent="WIyWlLk6GJQsqaUBKTNV-1" source="hDE4gSIP_6tDHtdlFtJO-83" target="hDE4gSIP_6tDHtdlFtJO-104">
          <mxGeometry relative="1" as="geometry" />
        </mxCell>
        <mxCell id="hDE4gSIP_6tDHtdlFtJO-107" value="Si" style="edgeLabel;html=1;align=center;verticalAlign=middle;resizable=0;points=[];sketch=1;curveFitting=1;jiggle=2;" vertex="1" connectable="0" parent="hDE4gSIP_6tDHtdlFtJO-105">
          <mxGeometry x="0.4436" y="-1" relative="1" as="geometry">
            <mxPoint as="offset" />
          </mxGeometry>
        </mxCell>
        <mxCell id="hDE4gSIP_6tDHtdlFtJO-83" value="&lt;font style=&quot;font-size: 12px;&quot;&gt;km &amp;gt; max1?&lt;/font&gt;" style="rhombus;whiteSpace=wrap;html=1;rounded=1;arcSize=16;strokeWidth=1;sketch=1;curveFitting=1;jiggle=2;" vertex="1" parent="WIyWlLk6GJQsqaUBKTNV-1">
          <mxGeometry x="-230" y="-370" width="80" height="80" as="geometry" />
        </mxCell>
        <mxCell id="hDE4gSIP_6tDHtdlFtJO-94" value="" style="edgeStyle=orthogonalEdgeStyle;rounded=0;orthogonalLoop=1;jettySize=auto;html=1;dashed=1;sketch=1;curveFitting=1;jiggle=2;" edge="1" parent="WIyWlLk6GJQsqaUBKTNV-1" source="hDE4gSIP_6tDHtdlFtJO-89" target="hDE4gSIP_6tDHtdlFtJO-93">
          <mxGeometry relative="1" as="geometry">
            <Array as="points">
              <mxPoint x="-490" y="-230" />
              <mxPoint x="-490" y="-390" />
            </Array>
          </mxGeometry>
        </mxCell>
        <mxCell id="hDE4gSIP_6tDHtdlFtJO-96" value="No" style="edgeLabel;html=1;align=center;verticalAlign=middle;resizable=0;points=[];sketch=1;curveFitting=1;jiggle=2;" vertex="1" connectable="0" parent="hDE4gSIP_6tDHtdlFtJO-94">
          <mxGeometry x="0.1964" y="3" relative="1" as="geometry">
            <mxPoint as="offset" />
          </mxGeometry>
        </mxCell>
        <mxCell id="hDE4gSIP_6tDHtdlFtJO-98" value="" style="edgeStyle=orthogonalEdgeStyle;rounded=0;orthogonalLoop=1;jettySize=auto;html=1;dashed=1;sketch=1;curveFitting=1;jiggle=2;" edge="1" parent="WIyWlLk6GJQsqaUBKTNV-1" source="hDE4gSIP_6tDHtdlFtJO-89" target="hDE4gSIP_6tDHtdlFtJO-97">
          <mxGeometry relative="1" as="geometry" />
        </mxCell>
        <mxCell id="hDE4gSIP_6tDHtdlFtJO-99" value="Si" style="edgeLabel;html=1;align=center;verticalAlign=middle;resizable=0;points=[];sketch=1;curveFitting=1;jiggle=2;" vertex="1" connectable="0" parent="hDE4gSIP_6tDHtdlFtJO-98">
          <mxGeometry x="-0.3455" y="3" relative="1" as="geometry">
            <mxPoint as="offset" />
          </mxGeometry>
        </mxCell>
        <mxCell id="hDE4gSIP_6tDHtdlFtJO-89" value="&lt;font style=&quot;font-size: 12px;&quot;&gt;km &amp;gt; max2?&lt;/font&gt;" style="rhombus;whiteSpace=wrap;html=1;rounded=1;arcSize=16;strokeWidth=1;sketch=1;curveFitting=1;jiggle=2;" vertex="1" parent="WIyWlLk6GJQsqaUBKTNV-1">
          <mxGeometry x="-600" y="-270" width="80" height="80" as="geometry" />
        </mxCell>
        <mxCell id="hDE4gSIP_6tDHtdlFtJO-92" value="" style="edgeStyle=orthogonalEdgeStyle;rounded=0;orthogonalLoop=1;jettySize=auto;html=1;sketch=1;curveFitting=1;jiggle=2;" edge="1" parent="WIyWlLk6GJQsqaUBKTNV-1" source="hDE4gSIP_6tDHtdlFtJO-90" target="hDE4gSIP_6tDHtdlFtJO-83">
          <mxGeometry relative="1" as="geometry" />
        </mxCell>
        <mxCell id="hDE4gSIP_6tDHtdlFtJO-90" value="Entro en el nodo" style="rounded=1;whiteSpace=wrap;html=1;absoluteArcSize=1;arcSize=14;strokeWidth=1;sketch=1;curveFitting=1;jiggle=2;" vertex="1" parent="WIyWlLk6GJQsqaUBKTNV-1">
          <mxGeometry x="-240" y="-450" width="100" height="40" as="geometry" />
        </mxCell>
        <mxCell id="hDE4gSIP_6tDHtdlFtJO-115" value="" style="edgeStyle=orthogonalEdgeStyle;rounded=0;orthogonalLoop=1;jettySize=auto;html=1;sketch=1;curveFitting=1;jiggle=2;" edge="1" parent="WIyWlLk6GJQsqaUBKTNV-1" source="hDE4gSIP_6tDHtdlFtJO-93" target="hDE4gSIP_6tDHtdlFtJO-114">
          <mxGeometry relative="1" as="geometry" />
        </mxCell>
        <mxCell id="hDE4gSIP_6tDHtdlFtJO-93" value="Sigo avanzando entre nodos." style="whiteSpace=wrap;html=1;rounded=1;arcSize=16;strokeWidth=1;sketch=1;curveFitting=1;jiggle=2;" vertex="1" parent="WIyWlLk6GJQsqaUBKTNV-1">
          <mxGeometry x="-480" y="-400" width="120" height="30" as="geometry" />
        </mxCell>
        <mxCell id="hDE4gSIP_6tDHtdlFtJO-101" value="" style="edgeStyle=orthogonalEdgeStyle;rounded=0;orthogonalLoop=1;jettySize=auto;html=1;sketch=1;curveFitting=1;jiggle=2;" edge="1" parent="WIyWlLk6GJQsqaUBKTNV-1" source="hDE4gSIP_6tDHtdlFtJO-97" target="hDE4gSIP_6tDHtdlFtJO-100">
          <mxGeometry relative="1" as="geometry" />
        </mxCell>
        <mxCell id="hDE4gSIP_6tDHtdlFtJO-97" value="Remplazo max2 por km Act" style="whiteSpace=wrap;html=1;rounded=1;arcSize=16;strokeWidth=1;sketch=1;curveFitting=1;jiggle=2;" vertex="1" parent="WIyWlLk6GJQsqaUBKTNV-1">
          <mxGeometry x="-620" y="-520" width="120" height="30" as="geometry" />
        </mxCell>
        <mxCell id="hDE4gSIP_6tDHtdlFtJO-100" value="" style="shape=waypoint;sketch=1;size=6;pointerEvents=1;points=[];fillColor=default;resizable=0;rotatable=0;perimeter=centerPerimeter;snapToPoint=1;rounded=1;arcSize=16;strokeWidth=1;curveFitting=1;jiggle=2;" vertex="1" parent="WIyWlLk6GJQsqaUBKTNV-1">
          <mxGeometry x="-420" y="-420" width="20" height="20" as="geometry" />
        </mxCell>
        <mxCell id="hDE4gSIP_6tDHtdlFtJO-109" style="edgeStyle=orthogonalEdgeStyle;rounded=0;orthogonalLoop=1;jettySize=auto;html=1;exitX=0;exitY=0.5;exitDx=0;exitDy=0;entryX=0.5;entryY=1;entryDx=0;entryDy=0;sketch=1;curveFitting=1;jiggle=2;" edge="1" parent="WIyWlLk6GJQsqaUBKTNV-1" source="hDE4gSIP_6tDHtdlFtJO-104" target="hDE4gSIP_6tDHtdlFtJO-93">
          <mxGeometry relative="1" as="geometry" />
        </mxCell>
        <mxCell id="hDE4gSIP_6tDHtdlFtJO-104" value="Remplazo max1 por kmAct" style="whiteSpace=wrap;html=1;rounded=1;arcSize=16;strokeWidth=1;sketch=1;curveFitting=1;jiggle=2;" vertex="1" parent="WIyWlLk6GJQsqaUBKTNV-1">
          <mxGeometry x="-250" y="-190" width="120" height="30" as="geometry" />
        </mxCell>
        <mxCell id="hDE4gSIP_6tDHtdlFtJO-113" value="" style="edgeStyle=orthogonalEdgeStyle;rounded=0;orthogonalLoop=1;jettySize=auto;html=1;sketch=1;curveFitting=1;jiggle=2;" edge="1" parent="WIyWlLk6GJQsqaUBKTNV-1" source="hDE4gSIP_6tDHtdlFtJO-110" target="hDE4gSIP_6tDHtdlFtJO-112">
          <mxGeometry relative="1" as="geometry" />
        </mxCell>
        <mxCell id="hDE4gSIP_6tDHtdlFtJO-110" value="Entro en el nodo" style="whiteSpace=wrap;html=1;rounded=1;arcSize=14;strokeWidth=1;sketch=1;curveFitting=1;jiggle=2;" vertex="1" parent="WIyWlLk6GJQsqaUBKTNV-1">
          <mxGeometry x="-830" y="-245" width="120" height="25" as="geometry" />
        </mxCell>
        <mxCell id="hDE4gSIP_6tDHtdlFtJO-131" value="" style="edgeStyle=orthogonalEdgeStyle;rounded=0;orthogonalLoop=1;jettySize=auto;html=1;dashed=1;entryX=0;entryY=0.5;entryDx=0;entryDy=0;sketch=1;curveFitting=1;jiggle=2;" edge="1" parent="WIyWlLk6GJQsqaUBKTNV-1" source="hDE4gSIP_6tDHtdlFtJO-112" target="hDE4gSIP_6tDHtdlFtJO-130">
          <mxGeometry relative="1" as="geometry">
            <Array as="points">
              <mxPoint x="-770" y="39" />
            </Array>
          </mxGeometry>
        </mxCell>
        <mxCell id="hDE4gSIP_6tDHtdlFtJO-135" value="No" style="edgeLabel;html=1;align=center;verticalAlign=middle;resizable=0;points=[];sketch=1;curveFitting=1;jiggle=2;" vertex="1" connectable="0" parent="hDE4gSIP_6tDHtdlFtJO-131">
          <mxGeometry x="-0.1433" y="2" relative="1" as="geometry">
            <mxPoint as="offset" />
          </mxGeometry>
        </mxCell>
        <mxCell id="hDE4gSIP_6tDHtdlFtJO-133" style="edgeStyle=orthogonalEdgeStyle;rounded=0;orthogonalLoop=1;jettySize=auto;html=1;exitX=1;exitY=0.5;exitDx=0;exitDy=0;entryX=0;entryY=0.5;entryDx=0;entryDy=0;dashed=1;sketch=1;curveFitting=1;jiggle=2;" edge="1" parent="WIyWlLk6GJQsqaUBKTNV-1" source="hDE4gSIP_6tDHtdlFtJO-112" target="hDE4gSIP_6tDHtdlFtJO-127">
          <mxGeometry relative="1" as="geometry" />
        </mxCell>
        <mxCell id="hDE4gSIP_6tDHtdlFtJO-134" value="Si" style="edgeLabel;html=1;align=center;verticalAlign=middle;resizable=0;points=[];sketch=1;curveFitting=1;jiggle=2;" vertex="1" connectable="0" parent="hDE4gSIP_6tDHtdlFtJO-133">
          <mxGeometry x="-0.3685" y="-1" relative="1" as="geometry">
            <mxPoint as="offset" />
          </mxGeometry>
        </mxCell>
        <mxCell id="hDE4gSIP_6tDHtdlFtJO-112" value="Supera el viaje 5km?" style="rhombus;whiteSpace=wrap;html=1;rounded=1;arcSize=14;strokeWidth=1;sketch=1;curveFitting=1;jiggle=2;" vertex="1" parent="WIyWlLk6GJQsqaUBKTNV-1">
          <mxGeometry x="-810" y="-167.5" width="80" height="80" as="geometry" />
        </mxCell>
        <mxCell id="hDE4gSIP_6tDHtdlFtJO-1" value="&lt;pre&gt;COMIENZO&lt;/pre&gt;" style="ellipse;whiteSpace=wrap;html=1;aspect=fixed;labelBackgroundColor=none;rounded=1;sketch=1;curveFitting=1;jiggle=2;" vertex="1" parent="WIyWlLk6GJQsqaUBKTNV-1">
          <mxGeometry x="191.15789473684208" y="-700" width="71.84210526315789" height="71.84210526315789" as="geometry" />
        </mxCell>
        <mxCell id="hDE4gSIP_6tDHtdlFtJO-4" value="&lt;pre&gt;&lt;font style=&quot;font-size: 13px;&quot;&gt;FIN&lt;/font&gt;&lt;/pre&gt;" style="ellipse;whiteSpace=wrap;html=1;aspect=fixed;labelBackgroundColor=none;rounded=1;sketch=1;curveFitting=1;jiggle=2;" vertex="1" parent="WIyWlLk6GJQsqaUBKTNV-1">
          <mxGeometry x="210.5684210526315" y="-220" width="67.05263157894737" height="67.05263157894737" as="geometry" />
        </mxCell>
        <mxCell id="hDE4gSIP_6tDHtdlFtJO-6" value="&lt;pre&gt;Recibo datos ingresados.&lt;/pre&gt;" style="shape=parallelogram;html=1;strokeWidth=1;perimeter=parallelogramPerimeter;whiteSpace=wrap;rounded=1;arcSize=12;size=0.23;labelBackgroundColor=none;sketch=1;curveFitting=1;jiggle=2;" vertex="1" parent="WIyWlLk6GJQsqaUBKTNV-1">
          <mxGeometry x="128.07368421052638" y="-530" width="232.92631578947365" height="40" as="geometry" />
        </mxCell>
        <mxCell id="hDE4gSIP_6tDHtdlFtJO-8" value="" style="endArrow=none;html=1;rounded=0;entryX=0.5;entryY=1;entryDx=0;entryDy=0;sketch=1;curveFitting=1;jiggle=2;" edge="1" parent="WIyWlLk6GJQsqaUBKTNV-1" target="hDE4gSIP_6tDHtdlFtJO-1">
          <mxGeometry width="50" height="50" relative="1" as="geometry">
            <mxPoint x="229.97894736842113" y="-530" as="sourcePoint" />
            <mxPoint x="273.6526315789473" y="-350" as="targetPoint" />
          </mxGeometry>
        </mxCell>
        <mxCell id="hDE4gSIP_6tDHtdlFtJO-10" value="Codigo -1?" style="strokeWidth=1;html=1;shape=mxgraph.flowchart.decision;whiteSpace=wrap;direction=west;sketch=1;curveFitting=1;jiggle=2;" vertex="1" parent="WIyWlLk6GJQsqaUBKTNV-1">
          <mxGeometry x="210.5684210526315" y="-360" width="67.93684210526317" height="70" as="geometry" />
        </mxCell>
        <mxCell id="hDE4gSIP_6tDHtdlFtJO-34" value="" style="shape=waypoint;sketch=1;size=6;pointerEvents=1;points=[];fillColor=default;resizable=0;rotatable=0;perimeter=centerPerimeter;snapToPoint=1;strokeWidth=1;curveFitting=1;jiggle=2;" vertex="1" parent="WIyWlLk6GJQsqaUBKTNV-1">
          <mxGeometry x="-27.21052631578948" y="-390" width="20" height="20" as="geometry" />
        </mxCell>
        <mxCell id="hDE4gSIP_6tDHtdlFtJO-35" value="" style="edgeStyle=orthogonalEdgeStyle;rounded=0;orthogonalLoop=1;jettySize=auto;html=1;dashed=1;sketch=1;curveFitting=1;jiggle=2;" edge="1" parent="WIyWlLk6GJQsqaUBKTNV-1" source="hDE4gSIP_6tDHtdlFtJO-10" target="hDE4gSIP_6tDHtdlFtJO-34">
          <mxGeometry relative="1" as="geometry" />
        </mxCell>
        <mxCell id="hDE4gSIP_6tDHtdlFtJO-36" value="No" style="edgeLabel;html=1;align=center;verticalAlign=middle;resizable=0;points=[];sketch=1;curveFitting=1;jiggle=2;" vertex="1" connectable="0" parent="hDE4gSIP_6tDHtdlFtJO-35">
          <mxGeometry x="-0.0515" y="-2" relative="1" as="geometry">
            <mxPoint as="offset" />
          </mxGeometry>
        </mxCell>
        <mxCell id="hDE4gSIP_6tDHtdlFtJO-41" value="" style="edgeStyle=orthogonalEdgeStyle;rounded=0;orthogonalLoop=1;jettySize=auto;html=1;entryX=0;entryY=0.5;entryDx=0;entryDy=0;sketch=1;curveFitting=1;jiggle=2;" edge="1" parent="WIyWlLk6GJQsqaUBKTNV-1" source="hDE4gSIP_6tDHtdlFtJO-40" target="hDE4gSIP_6tDHtdlFtJO-6">
          <mxGeometry relative="1" as="geometry">
            <Array as="points">
              <mxPoint x="-17.505263157894774" y="-510" />
            </Array>
          </mxGeometry>
        </mxCell>
        <mxCell id="hDE4gSIP_6tDHtdlFtJO-38" value="Inserto ordenado dentro de la lista." style="rounded=1;whiteSpace=wrap;html=1;sketch=1;pointerEvents=1;strokeWidth=1;curveFitting=1;jiggle=2;" vertex="1" parent="WIyWlLk6GJQsqaUBKTNV-1">
          <mxGeometry x="-80.58947368421053" y="-422.5" width="116.46315789473682" height="35" as="geometry" />
        </mxCell>
        <mxCell id="hDE4gSIP_6tDHtdlFtJO-40" value="" style="shape=waypoint;sketch=1;size=6;pointerEvents=1;points=[];fillColor=default;resizable=0;rotatable=0;perimeter=centerPerimeter;snapToPoint=1;rounded=1;strokeWidth=1;curveFitting=1;jiggle=2;" vertex="1" parent="WIyWlLk6GJQsqaUBKTNV-1">
          <mxGeometry x="-27.21052631578948" y="-435" width="20" height="20" as="geometry" />
        </mxCell>
        <mxCell id="hDE4gSIP_6tDHtdlFtJO-44" value="" style="shape=waypoint;sketch=1;size=6;pointerEvents=1;points=[];fillColor=default;resizable=0;rotatable=0;perimeter=centerPerimeter;snapToPoint=1;strokeWidth=1;curveFitting=1;jiggle=2;" vertex="1" parent="WIyWlLk6GJQsqaUBKTNV-1">
          <mxGeometry x="234.83157894736837" y="-230" width="20" height="20" as="geometry" />
        </mxCell>
        <mxCell id="hDE4gSIP_6tDHtdlFtJO-45" value="" style="edgeStyle=orthogonalEdgeStyle;rounded=0;orthogonalLoop=1;jettySize=auto;html=1;dashed=1;sketch=1;curveFitting=1;jiggle=2;" edge="1" parent="WIyWlLk6GJQsqaUBKTNV-1" source="hDE4gSIP_6tDHtdlFtJO-10" target="hDE4gSIP_6tDHtdlFtJO-44">
          <mxGeometry relative="1" as="geometry" />
        </mxCell>
        <mxCell id="hDE4gSIP_6tDHtdlFtJO-46" value="Si" style="edgeLabel;html=1;align=center;verticalAlign=middle;resizable=0;points=[];sketch=1;curveFitting=1;jiggle=2;" vertex="1" connectable="0" parent="hDE4gSIP_6tDHtdlFtJO-45">
          <mxGeometry x="-0.1492" y="1" relative="1" as="geometry">
            <mxPoint as="offset" />
          </mxGeometry>
        </mxCell>
        <mxCell id="hDE4gSIP_6tDHtdlFtJO-54" value="" style="edgeStyle=orthogonalEdgeStyle;rounded=0;orthogonalLoop=1;jettySize=auto;html=1;sketch=1;curveFitting=1;jiggle=2;" edge="1" parent="WIyWlLk6GJQsqaUBKTNV-1" source="hDE4gSIP_6tDHtdlFtJO-52" target="hDE4gSIP_6tDHtdlFtJO-10">
          <mxGeometry relative="1" as="geometry" />
        </mxCell>
        <mxCell id="hDE4gSIP_6tDHtdlFtJO-52" value="Leo datos recibidos." style="whiteSpace=wrap;html=1;strokeWidth=1;rounded=1;arcSize=12;labelBackgroundColor=none;sketch=1;curveFitting=1;jiggle=2;" vertex="1" parent="WIyWlLk6GJQsqaUBKTNV-1">
          <mxGeometry x="186.30526315789473" y="-420" width="116.46315789473682" height="32.5" as="geometry" />
        </mxCell>
        <mxCell id="hDE4gSIP_6tDHtdlFtJO-53" value="" style="edgeStyle=orthogonalEdgeStyle;rounded=0;orthogonalLoop=1;jettySize=auto;html=1;sketch=1;curveFitting=1;jiggle=2;" edge="1" parent="WIyWlLk6GJQsqaUBKTNV-1" source="hDE4gSIP_6tDHtdlFtJO-6" target="hDE4gSIP_6tDHtdlFtJO-52">
          <mxGeometry relative="1" as="geometry" />
        </mxCell>
        <mxCell id="hDE4gSIP_6tDHtdlFtJO-124" value="" style="edgeStyle=orthogonalEdgeStyle;rounded=0;orthogonalLoop=1;jettySize=auto;html=1;entryX=0;entryY=0.25;entryDx=0;entryDy=0;sketch=1;curveFitting=1;jiggle=2;" edge="1" parent="WIyWlLk6GJQsqaUBKTNV-1" source="hDE4gSIP_6tDHtdlFtJO-59" target="hDE4gSIP_6tDHtdlFtJO-81">
          <mxGeometry relative="1" as="geometry">
            <Array as="points">
              <mxPoint x="-51" y="140" />
              <mxPoint x="-900" y="140" />
              <mxPoint x="-900" y="-331" />
            </Array>
          </mxGeometry>
        </mxCell>
        <mxCell id="hDE4gSIP_6tDHtdlFtJO-59" value="Lista ordenada" style="strokeWidth=1;html=1;shape=mxgraph.flowchart.stored_data;whiteSpace=wrap;sketch=1;curveFitting=1;jiggle=2;" vertex="1" parent="WIyWlLk6GJQsqaUBKTNV-1">
          <mxGeometry x="-100" y="-180" width="97.05263157894736" height="60" as="geometry" />
        </mxCell>
        <mxCell id="hDE4gSIP_6tDHtdlFtJO-76" value="" style="edgeStyle=orthogonalEdgeStyle;rounded=0;orthogonalLoop=1;jettySize=auto;html=1;exitX=0.25;exitY=1;exitDx=0;exitDy=0;sketch=1;curveFitting=1;jiggle=2;" edge="1" parent="WIyWlLk6GJQsqaUBKTNV-1" source="hDE4gSIP_6tDHtdlFtJO-38" target="hDE4gSIP_6tDHtdlFtJO-59">
          <mxGeometry relative="1" as="geometry" />
        </mxCell>
        <mxCell id="hDE4gSIP_6tDHtdlFtJO-121" value="" style="edgeStyle=orthogonalEdgeStyle;rounded=0;orthogonalLoop=1;jettySize=auto;html=1;entryX=0;entryY=0.5;entryDx=0;entryDy=0;dashed=1;sketch=1;curveFitting=1;jiggle=2;" edge="1" parent="WIyWlLk6GJQsqaUBKTNV-1" target="hDE4gSIP_6tDHtdlFtJO-90">
          <mxGeometry relative="1" as="geometry">
            <mxPoint x="-290" y="-422.5000000000002" as="sourcePoint" />
            <mxPoint x="-270.00000000000045" y="-467.5000000000002" as="targetPoint" />
            <Array as="points">
              <mxPoint x="-290" y="-430" />
            </Array>
          </mxGeometry>
        </mxCell>
        <mxCell id="hDE4gSIP_6tDHtdlFtJO-122" value="No" style="edgeLabel;html=1;align=center;verticalAlign=middle;resizable=0;points=[];sketch=1;curveFitting=1;jiggle=2;" vertex="1" connectable="0" parent="hDE4gSIP_6tDHtdlFtJO-121">
          <mxGeometry x="-0.268" y="1" relative="1" as="geometry">
            <mxPoint as="offset" />
          </mxGeometry>
        </mxCell>
        <mxCell id="hDE4gSIP_6tDHtdlFtJO-148" value="" style="edgeStyle=orthogonalEdgeStyle;rounded=0;orthogonalLoop=1;jettySize=auto;html=1;dashed=1;sketch=1;curveFitting=1;jiggle=2;" edge="1" parent="WIyWlLk6GJQsqaUBKTNV-1" source="hDE4gSIP_6tDHtdlFtJO-114" target="hDE4gSIP_6tDHtdlFtJO-147">
          <mxGeometry relative="1" as="geometry" />
        </mxCell>
        <mxCell id="hDE4gSIP_6tDHtdlFtJO-149" value="Si" style="edgeLabel;html=1;align=center;verticalAlign=middle;resizable=0;points=[];sketch=1;curveFitting=1;jiggle=2;" vertex="1" connectable="0" parent="hDE4gSIP_6tDHtdlFtJO-148">
          <mxGeometry x="-0.6614" y="-1" relative="1" as="geometry">
            <mxPoint as="offset" />
          </mxGeometry>
        </mxCell>
        <mxCell id="hDE4gSIP_6tDHtdlFtJO-114" value="Es el ultimo nodo?" style="rhombus;whiteSpace=wrap;html=1;rounded=1;arcSize=16;strokeWidth=1;sketch=1;curveFitting=1;jiggle=2;" vertex="1" parent="WIyWlLk6GJQsqaUBKTNV-1">
          <mxGeometry x="-330" y="-425" width="80" height="80" as="geometry" />
        </mxCell>
        <mxCell id="hDE4gSIP_6tDHtdlFtJO-116" value="" style="shape=waypoint;sketch=1;size=6;pointerEvents=1;points=[];fillColor=default;resizable=0;rotatable=0;perimeter=centerPerimeter;snapToPoint=1;rounded=1;arcSize=16;strokeWidth=1;curveFitting=1;jiggle=2;" vertex="1" parent="WIyWlLk6GJQsqaUBKTNV-1">
          <mxGeometry x="200" y="-196.47000000000003" width="20" height="20" as="geometry" />
        </mxCell>
        <mxCell id="hDE4gSIP_6tDHtdlFtJO-125" value="Genero una nueva lista con un puntero inicial." style="rounded=1;whiteSpace=wrap;html=1;arcSize=14;strokeWidth=1;sketch=1;curveFitting=1;jiggle=2;" vertex="1" parent="WIyWlLk6GJQsqaUBKTNV-1">
          <mxGeometry x="-700" y="-350" width="120" height="40" as="geometry" />
        </mxCell>
        <mxCell id="hDE4gSIP_6tDHtdlFtJO-129" value="" style="edgeStyle=orthogonalEdgeStyle;rounded=0;orthogonalLoop=1;jettySize=auto;html=1;entryX=0.5;entryY=1;entryDx=0;entryDy=0;sketch=1;curveFitting=1;jiggle=2;" edge="1" parent="WIyWlLk6GJQsqaUBKTNV-1" source="hDE4gSIP_6tDHtdlFtJO-127" target="hDE4gSIP_6tDHtdlFtJO-125">
          <mxGeometry relative="1" as="geometry">
            <mxPoint x="-640" y="-270" as="targetPoint" />
            <Array as="points">
              <mxPoint x="-640" y="-150" />
              <mxPoint x="-640" y="-150" />
            </Array>
          </mxGeometry>
        </mxCell>
        <mxCell id="hDE4gSIP_6tDHtdlFtJO-139" style="edgeStyle=orthogonalEdgeStyle;rounded=0;orthogonalLoop=1;jettySize=auto;html=1;exitX=1;exitY=0.5;exitDx=0;exitDy=0;entryX=0.5;entryY=0;entryDx=0;entryDy=0;sketch=1;curveFitting=1;jiggle=2;" edge="1" parent="WIyWlLk6GJQsqaUBKTNV-1" source="hDE4gSIP_6tDHtdlFtJO-127" target="hDE4gSIP_6tDHtdlFtJO-130">
          <mxGeometry relative="1" as="geometry" />
        </mxCell>
        <mxCell id="hDE4gSIP_6tDHtdlFtJO-127" value="Inserto ordenado en la lista." style="whiteSpace=wrap;html=1;rounded=1;arcSize=14;strokeWidth=1;sketch=1;curveFitting=1;jiggle=2;" vertex="1" parent="WIyWlLk6GJQsqaUBKTNV-1">
          <mxGeometry x="-680" y="-57.5" width="120" height="60" as="geometry" />
        </mxCell>
        <mxCell id="hDE4gSIP_6tDHtdlFtJO-138" value="" style="edgeStyle=orthogonalEdgeStyle;rounded=0;orthogonalLoop=1;jettySize=auto;html=1;exitX=0.5;exitY=1;exitDx=0;exitDy=0;sketch=1;curveFitting=1;jiggle=2;" edge="1" parent="WIyWlLk6GJQsqaUBKTNV-1" source="hDE4gSIP_6tDHtdlFtJO-130" target="hDE4gSIP_6tDHtdlFtJO-137">
          <mxGeometry relative="1" as="geometry" />
        </mxCell>
        <mxCell id="hDE4gSIP_6tDHtdlFtJO-130" value="Sigo avanzando entre nodos." style="whiteSpace=wrap;html=1;rounded=1;arcSize=14;strokeWidth=1;sketch=1;curveFitting=1;jiggle=2;" vertex="1" parent="WIyWlLk6GJQsqaUBKTNV-1">
          <mxGeometry x="-420" y="20" width="120" height="37.5" as="geometry" />
        </mxCell>
        <mxCell id="hDE4gSIP_6tDHtdlFtJO-140" style="edgeStyle=orthogonalEdgeStyle;rounded=0;orthogonalLoop=1;jettySize=auto;html=1;exitX=0;exitY=0.5;exitDx=0;exitDy=0;entryX=0;entryY=0.5;entryDx=0;entryDy=0;dashed=1;sketch=1;curveFitting=1;jiggle=2;" edge="1" parent="WIyWlLk6GJQsqaUBKTNV-1" source="hDE4gSIP_6tDHtdlFtJO-137" target="hDE4gSIP_6tDHtdlFtJO-110">
          <mxGeometry relative="1" as="geometry">
            <Array as="points">
              <mxPoint x="-860" y="-232" />
            </Array>
          </mxGeometry>
        </mxCell>
        <mxCell id="hDE4gSIP_6tDHtdlFtJO-141" value="No" style="edgeLabel;html=1;align=center;verticalAlign=middle;resizable=0;points=[];sketch=1;curveFitting=1;jiggle=2;" vertex="1" connectable="0" parent="hDE4gSIP_6tDHtdlFtJO-140">
          <mxGeometry x="0.108" y="-3" relative="1" as="geometry">
            <mxPoint as="offset" />
          </mxGeometry>
        </mxCell>
        <mxCell id="hDE4gSIP_6tDHtdlFtJO-143" style="edgeStyle=orthogonalEdgeStyle;rounded=0;orthogonalLoop=1;jettySize=auto;html=1;exitX=0.5;exitY=1;exitDx=0;exitDy=0;entryX=0.5;entryY=1;entryDx=0;entryDy=0;dashed=1;sketch=1;curveFitting=1;jiggle=2;" edge="1" parent="WIyWlLk6GJQsqaUBKTNV-1" source="hDE4gSIP_6tDHtdlFtJO-137" target="hDE4gSIP_6tDHtdlFtJO-4">
          <mxGeometry relative="1" as="geometry" />
        </mxCell>
        <mxCell id="hDE4gSIP_6tDHtdlFtJO-145" value="Si" style="edgeLabel;html=1;align=center;verticalAlign=middle;resizable=0;points=[];sketch=1;curveFitting=1;jiggle=2;" vertex="1" connectable="0" parent="hDE4gSIP_6tDHtdlFtJO-143">
          <mxGeometry x="-0.8677" y="1" relative="1" as="geometry">
            <mxPoint as="offset" />
          </mxGeometry>
        </mxCell>
        <mxCell id="hDE4gSIP_6tDHtdlFtJO-137" value="Es el ultimo nodo?" style="rhombus;whiteSpace=wrap;html=1;rounded=1;arcSize=14;strokeWidth=1;sketch=1;curveFitting=1;jiggle=2;" vertex="1" parent="WIyWlLk6GJQsqaUBKTNV-1">
          <mxGeometry x="-860" y="50" width="80" height="80" as="geometry" />
        </mxCell>
        <mxCell id="hDE4gSIP_6tDHtdlFtJO-150" style="edgeStyle=orthogonalEdgeStyle;rounded=0;orthogonalLoop=1;jettySize=auto;html=1;exitX=1;exitY=0.5;exitDx=0;exitDy=0;sketch=1;curveFitting=1;jiggle=2;" edge="1" parent="WIyWlLk6GJQsqaUBKTNV-1" source="hDE4gSIP_6tDHtdlFtJO-147" target="hDE4gSIP_6tDHtdlFtJO-116">
          <mxGeometry relative="1" as="geometry">
            <Array as="points">
              <mxPoint x="80" y="-80" />
              <mxPoint x="80" y="-186" />
            </Array>
          </mxGeometry>
        </mxCell>
        <mxCell id="hDE4gSIP_6tDHtdlFtJO-147" value="Informo&amp;nbsp; max2 y max1" style="shape=document;whiteSpace=wrap;html=1;boundedLbl=1;rounded=1;arcSize=16;strokeWidth=1;sketch=1;curveFitting=1;jiggle=2;" vertex="1" parent="WIyWlLk6GJQsqaUBKTNV-1">
          <mxGeometry x="-350" y="-120" width="120" height="80" as="geometry" />
        </mxCell>
      </root>
    </mxGraphModel>
  </diagram>
</mxfile>
